<svg id="Layer_1" data-name="Layer 1" xmlns="http://www.w3.org/2000/svg" viewBox="0 0 37.04 32"><defs><style>.cls-1{fill:#fff;}</style></defs><title>nav-gk-logo</title><polygon class="cls-1" points="29.84 15.24 27.99 13.39 31.68 13.39 29.84 15.24"/><polygon class="cls-1" points="25.38 13.39 25.38 16 27.99 13.39 25.38 13.39"/><polygon class="cls-1" points="2.61 31.99 2.61 29.38 0 31.99 2.61 31.99"/><polygon class="cls-1" points="34.43 31.99 34.43 29.38 37.04 31.99 34.43 31.99"/><polygon class="cls-1" points="29.84 20.9 27.99 19.06 31.68 19.06 29.84 20.9"/><rect class="cls-1" x="17.76" y="17.63" width="13.07" height="2.61" transform="translate(-6.27 22.72) rotate(-45)"/><polygon class="cls-1" points="20.6 24.48 18.75 22.63 18.75 26.33 20.6 24.48"/><rect class="cls-1" x="18.76" y="13.39" width="6.63" height="2.61" transform="matrix(-1, 0, 0, -1, 44.14, 29.39)"/><polygon class="cls-1" points="21.36 31.99 21.36 29.38 18.75 31.99 21.36 31.99"/><polygon class="cls-1" points="15.68 31.99 15.68 29.38 18.3 31.99 15.68 31.99"/><rect class="cls-1" x="6.22" y="17.63" width="13.07" height="2.61" transform="translate(8.38 41.34) rotate(-135)"/><rect class="cls-1" x="2.61" y="29.38" width="13.07" height="2.61" transform="translate(18.3 61.37) rotate(180)"/><rect class="cls-1" x="21.36" y="29.38" width="13.07" height="2.61" transform="translate(55.79 61.37) rotate(180)"/><polygon class="cls-1" points="16.45 24.48 18.3 22.63 18.3 26.33 16.45 24.48"/><rect class="cls-1" x="17.76" y="23.29" width="13.07" height="2.61" transform="translate(-10.28 24.38) rotate(-45)"/><polygon class="cls-1" points="20.6 30.14 18.75 28.3 18.75 31.99 20.6 30.14"/><polygon class="cls-1" points="16.45 30.14 18.3 28.3 18.3 31.99 16.45 30.14"/><polygon class="cls-1" points="7.21 15.24 9.05 13.39 5.36 13.39 7.21 15.24"/><rect class="cls-1" x="6.22" y="23.29" width="13.07" height="2.61" transform="translate(4.37 51.01) rotate(-135)"/><polygon class="cls-1" points="7.21 20.9 9.05 19.06 5.36 19.06 7.21 20.9"/><rect class="cls-1" x="6.22" y="6.09" width="13.07" height="2.61" transform="translate(26.99 3.6) rotate(135)"/><polygon class="cls-1" points="16.45 1.85 18.3 3.7 18.3 0 16.45 1.85"/><polygon class="cls-1" points="7.21 11.09 9.05 12.94 5.36 12.94 7.21 11.09"/><rect class="cls-1" x="17.76" y="6.09" width="13.07" height="2.61" transform="translate(12.34 -15.01) rotate(45)"/><polygon class="cls-1" points="20.6 1.85 18.75 3.7 18.75 0 20.6 1.85"/><polygon class="cls-1" points="29.84 11.09 27.99 12.94 31.68 12.94 29.84 11.09"/><polygon class="cls-1" points="29.84 15.24 27.99 13.39 31.68 13.39 29.84 15.24"/><polygon class="cls-1" points="25.38 13.39 25.38 16 27.99 13.39 25.38 13.39"/><polygon class="cls-1" points="2.61 31.99 2.61 29.38 0 31.99 2.61 31.99"/><polygon class="cls-1" points="34.43 31.99 34.43 29.38 37.04 31.99 34.43 31.99"/><polygon class="cls-1" points="29.84 20.9 27.99 19.06 31.68 19.06 29.84 20.9"/><rect class="cls-1" x="17.76" y="17.63" width="13.07" height="2.61" transform="translate(-6.27 22.72) rotate(-45)"/><polygon class="cls-1" points="20.6 24.48 18.75 22.63 18.75 26.33 20.6 24.48"/><rect class="cls-1" x="18.76" y="13.39" width="6.63" height="2.61" transform="matrix(-1, 0, 0, -1, 44.14, 29.39)"/><polygon class="cls-1" points="21.36 31.99 21.36 29.38 18.75 31.99 21.36 31.99"/><polygon class="cls-1" points="15.68 31.99 15.68 29.38 18.3 31.99 15.68 31.99"/><rect class="cls-1" x="6.22" y="17.63" width="13.07" height="2.61" transform="translate(8.38 41.34) rotate(-135)"/><rect class="cls-1" x="2.61" y="29.38" width="13.07" height="2.61" transform="translate(18.3 61.37) rotate(180)"/><rect class="cls-1" x="21.36" y="29.38" width="13.07" height="2.61" transform="translate(55.79 61.37) rotate(180)"/><polygon class="cls-1" points="16.45 24.48 18.3 22.63 18.3 26.33 16.45 24.48"/><rect class="cls-1" x="17.76" y="23.29" width="13.07" height="2.61" transform="translate(-10.28 24.38) rotate(-45)"/><polygon class="cls-1" points="20.6 30.14 18.75 28.3 18.75 31.99 20.6 30.14"/><polygon class="cls-1" points="16.45 30.14 18.3 28.3 18.3 31.99 16.45 30.14"/><polygon class="cls-1" points="7.21 15.24 9.05 13.39 5.36 13.39 7.21 15.24"/><rect class="cls-1" x="6.22" y="23.29" width="13.07" height="2.61" transform="translate(4.37 51.01) rotate(-135)"/><polygon class="cls-1" points="7.21 20.9 9.05 19.06 5.36 19.06 7.21 20.9"/><rect class="cls-1" x="6.22" y="6.09" width="13.07" height="2.61" transform="translate(26.99 3.6) rotate(135)"/><polygon class="cls-1" points="16.45 1.85 18.3 3.7 18.3 0 16.45 1.85"/><polygon class="cls-1" points="7.21 11.09 9.05 12.94 5.36 12.94 7.21 11.09"/><rect class="cls-1" x="17.76" y="6.09" width="13.07" height="2.61" transform="translate(12.34 -15.01) rotate(45)"/><polygon class="cls-1" points="20.6 1.85 18.75 3.7 18.75 0 20.6 1.85"/><polygon class="cls-1" points="29.84 11.09 27.99 12.94 31.68 12.94 29.84 11.09"/><polygon class="cls-1" points="29.84 15.25 27.99 13.4 31.68 13.4 29.84 15.25"/><polygon class="cls-1" points="25.38 13.4 25.38 16.01 27.99 13.4 25.38 13.4"/><polygon class="cls-1" points="2.61 32 2.61 29.39 0 32 2.61 32"/><polygon class="cls-1" points="34.43 32 34.43 29.39 37.04 32 34.43 32"/><polygon class="cls-1" points="29.84 20.91 27.99 19.06 31.68 19.06 29.84 20.91"/><rect class="cls-1" x="17.76" y="17.64" width="13.07" height="2.61" transform="translate(-6.28 22.73) rotate(-45)"/><polygon class="cls-1" points="20.6 24.49 18.75 22.64 18.75 26.34 20.6 24.49"/><rect class="cls-1" x="18.76" y="13.4" width="6.63" height="2.61" transform="matrix(-1, 0, 0, -1, 44.14, 29.41)"/><polygon class="cls-1" points="21.36 32 21.36 29.39 18.75 32 21.36 32"/><polygon class="cls-1" points="15.68 32 15.68 29.39 18.3 32 15.68 32"/><rect class="cls-1" x="6.22" y="17.64" width="13.07" height="2.61" transform="translate(8.37 41.35) rotate(-135)"/><rect class="cls-1" x="2.61" y="29.39" width="13.07" height="2.61" transform="translate(18.3 61.39) rotate(180)"/><rect class="cls-1" x="21.36" y="29.39" width="13.07" height="2.61" transform="translate(55.79 61.39) rotate(180)"/><polygon class="cls-1" points="16.45 24.49 18.3 22.64 18.3 26.34 16.45 24.49"/><rect class="cls-1" x="17.76" y="23.3" width="13.07" height="2.61" transform="translate(-10.28 24.39) rotate(-45)"/><polygon class="cls-1" points="20.6 30.15 18.75 28.3 18.75 32 20.6 30.15"/><polygon class="cls-1" points="16.45 30.15 18.3 28.3 18.3 32 16.45 30.15"/><polygon class="cls-1" points="7.21 15.25 9.05 13.4 5.36 13.4 7.21 15.25"/><rect class="cls-1" x="6.22" y="23.3" width="13.07" height="2.61" transform="translate(4.37 51.02) rotate(-135)"/><polygon class="cls-1" points="7.21 20.91 9.05 19.06 5.36 19.06 7.21 20.91"/><rect class="cls-1" x="6.22" y="6.09" width="13.07" height="2.61" transform="translate(27 3.62) rotate(135)"/><polygon class="cls-1" points="16.45 1.86 18.3 3.7 18.3 0.01 16.45 1.86"/><polygon class="cls-1" points="7.21 11.1 9.05 12.94 5.36 12.94 7.21 11.1"/><rect class="cls-1" x="17.76" y="6.09" width="13.07" height="2.61" transform="translate(12.35 -15.01) rotate(45)"/><polygon class="cls-1" points="20.6 1.86 18.75 3.7 18.75 0.01 20.6 1.86"/><polygon class="cls-1" points="29.84 11.1 27.99 12.94 31.68 12.94 29.84 11.1"/><polygon class="cls-1" points="29.84 15.25 27.99 13.4 31.68 13.4 29.84 15.25"/><polygon class="cls-1" points="25.38 13.4 25.38 16.01 27.99 13.4 25.38 13.4"/><polygon class="cls-1" points="2.61 32 2.61 29.39 0 32 2.61 32"/><polygon class="cls-1" points="34.43 32 34.43 29.39 37.04 32 34.43 32"/><polygon class="cls-1" points="29.84 20.91 27.99 19.06 31.68 19.06 29.84 20.91"/><rect class="cls-1" x="17.76" y="17.64" width="13.07" height="2.61" transform="translate(-6.28 22.73) rotate(-45)"/><polygon class="cls-1" points="20.6 24.49 18.75 22.64 18.75 26.34 20.6 24.49"/><rect class="cls-1" x="18.76" y="13.4" width="6.63" height="2.61" transform="matrix(-1, 0, 0, -1, 44.14, 29.41)"/><polygon class="cls-1" points="21.36 32 21.36 29.39 18.75 32 21.36 32"/><polygon class="cls-1" points="15.68 32 15.68 29.39 18.3 32 15.68 32"/><rect class="cls-1" x="6.22" y="17.64" width="13.07" height="2.61" transform="translate(8.37 41.35) rotate(-135)"/><rect class="cls-1" x="2.61" y="29.39" width="13.07" height="2.61" transform="translate(18.3 61.39) rotate(180)"/><rect class="cls-1" x="21.36" y="29.39" width="13.07" height="2.61" transform="translate(55.79 61.39) rotate(180)"/><polygon class="cls-1" points="16.45 24.49 18.3 22.64 18.3 26.34 16.45 24.49"/><rect class="cls-1" x="17.76" y="23.3" width="13.07" height="2.61" transform="translate(-10.28 24.39) rotate(-45)"/><polygon class="cls-1" points="20.6 30.15 18.75 28.3 18.75 32 20.6 30.15"/><polygon class="cls-1" points="16.45 30.15 18.3 28.3 18.3 32 16.45 30.15"/><polygon class="cls-1" points="7.21 15.25 9.05 13.4 5.36 13.4 7.21 15.25"/><rect class="cls-1" x="6.22" y="23.3" width="13.07" height="2.61" transform="translate(4.37 51.02) rotate(-135)"/><polygon class="cls-1" points="7.21 20.91 9.05 19.06 5.36 19.06 7.21 20.91"/><rect class="cls-1" x="6.22" y="6.09" width="13.07" height="2.61" transform="translate(27 3.62) rotate(135)"/><polygon class="cls-1" points="16.45 1.86 18.3 3.7 18.3 0.01 16.45 1.86"/><polygon class="cls-1" points="7.21 11.1 9.05 12.94 5.36 12.94 7.21 11.1"/><rect class="cls-1" x="17.76" y="6.09" width="13.07" height="2.61" transform="translate(12.35 -15.01) rotate(45)"/><polygon class="cls-1" points="20.6 1.86 18.75 3.7 18.75 0.01 20.6 1.86"/><polygon class="cls-1" points="29.84 11.1 27.99 12.94 31.68 12.94 29.84 11.1"/></svg>