<svg id="Layer_1" data-name="Layer 1" xmlns="http://www.w3.org/2000/svg" viewBox="0 0 140.54 32.5"><defs><style>.cls-1{fill:#fff;}</style></defs><title>Website GK Logo2 WhiteA</title><path class="cls-1" d="M47.58,7.63H41.67v-1h7c.29,4.61-2.67,7.94-7,7.94A7,7,0,0,1,34.43,7.3,7,7,0,0,1,41.69,0,6.41,6.41,0,0,1,48.1,4.84L47,5a5.5,5.5,0,0,0-5.35-4A6,6,0,0,0,35.57,7.3a6,6,0,0,0,6.12,6.24A5.73,5.73,0,0,0,47.58,7.63Z"/><path class="cls-1" d="M52.85,13.05h8.29v1H51.73V.48h9.22v1h-8.1v5h7.32v1H52.85Z"/><path class="cls-1" d="M65.17,14.1H64V.48h5.83c2.85,0,4.82,1.72,4.82,4.2a4,4,0,0,1-3.51,4l3.51,5.44H73.33L70,8.81l-4.82,0Zm0-12.57V7.79H69.8c2.21,0,3.74-1.26,3.74-3.1S72,1.53,69.8,1.53Z"/><path class="cls-1" d="M82.82,14.58c-3.22,0-5.56-2-5.56-4.84H78.4c0,2.23,1.84,3.8,4.45,3.8,2.46,0,4.09-1.3,4.09-3.2s-2.05-2.29-4.3-2.58c-2.54-.33-5.15-.76-5.15-3.62,0-2.38,2-4.14,5.06-4.14s5.33,1.92,5.33,4.53l-1.1,0C86.77,2.52,85,1,82.53,1S78.63,2.3,78.63,4c0,2,2.05,2.32,4.32,2.61,2.52.35,5.13.76,5.13,3.56C88.09,12.78,86,14.58,82.82,14.58Z"/><path class="cls-1" d="M91.21,14.1V.48h1.14v6h8.08v-6h1.14V14.1h-1.14V7.53H92.35V14.1Z"/><path class="cls-1" d="M104.53,7.3a7.26,7.26,0,1,1,14.53,0,7.26,7.26,0,1,1-14.53,0Zm1.14,0a6.12,6.12,0,1,0,12.24,0,6.12,6.12,0,1,0-12.24,0Z"/><path class="cls-1" d="M131.28,12.69V.48h1.14V14.1h-1.51L123.19,1.92V14.1H122V.48h1.51Z"/><path class="cls-1" d="M42.39,18h1.17v6.08L49.85,18h1.59l-6.88,6.6,7,7.38H50l-6.48-6.86V32H42.39Z"/><path class="cls-1" d="M55.13,30.93h8.51V32H54V18h9.47V19.1H55.13v5.13h7.52v1H55.13Z"/><path class="cls-1" d="M76.09,30.55V18h1.17V32H75.72L67.78,19.49V32H66.61V18h1.55Z"/><path class="cls-1" d="M81,18h3.88c4.89,0,8.15,2.8,8.15,7s-3.26,7-8.15,7H81Zm3.88,1.07h-2.7V30.93h2.7c4.18,0,7-2.33,7-5.91S89,19.1,84.84,19.1Z"/><path class="cls-1" d="M97.23,32H96.06V18h6c2.92,0,5,1.77,5,4.32a4.14,4.14,0,0,1-3.6,4.08L107,32H105.6l-3.42-5.43-5,0Zm0-12.91v6.42H102c2.27,0,3.84-1.29,3.84-3.18S104.25,19.1,102,19.1Z"/><path class="cls-1" d="M111.31,18V32h-1.17V18Z"/><path class="cls-1" d="M127.14,27.39l1.11.24a6.64,6.64,0,0,1-6.56,4.87A7.15,7.15,0,0,1,114.37,25a7.15,7.15,0,0,1,7.32-7.5,6.69,6.69,0,0,1,6.56,5.09l-1.15.16a5.55,5.55,0,0,0-5.41-4.18A6.06,6.06,0,0,0,115.54,25a6.07,6.07,0,0,0,6.14,6.4A5.55,5.55,0,0,0,127.14,27.39Z"/><path class="cls-1" d="M131.33,18h1.17v6.08L138.79,18h1.59l-6.88,6.6,7,7.38H139l-6.48-6.86V32h-1.17Z"/><polygon class="cls-1" points="29.84 15.24 27.99 13.39 31.68 13.39 29.84 15.24"/><polygon class="cls-1" points="25.38 13.39 25.38 16 27.99 13.39 25.38 13.39"/><polygon class="cls-1" points="2.61 31.99 2.61 29.38 0 31.99 2.61 31.99"/><polygon class="cls-1" points="34.43 31.99 34.43 29.38 37.04 31.99 34.43 31.99"/><polygon class="cls-1" points="29.84 20.9 27.99 19.06 31.68 19.06 29.84 20.9"/><rect class="cls-1" x="17.76" y="17.63" width="13.07" height="2.61" transform="translate(-6.27 22.72) rotate(-45)"/><polygon class="cls-1" points="20.6 24.48 18.75 22.63 18.75 26.33 20.6 24.48"/><rect class="cls-1" x="18.76" y="13.39" width="6.63" height="2.61" transform="matrix(-1, 0, 0, -1, 44.14, 29.39)"/><polygon class="cls-1" points="21.36 31.99 21.36 29.38 18.75 31.99 21.36 31.99"/><polygon class="cls-1" points="15.68 31.99 15.68 29.38 18.3 31.99 15.68 31.99"/><rect class="cls-1" x="6.22" y="17.63" width="13.07" height="2.61" transform="translate(8.38 41.34) rotate(-135)"/><rect class="cls-1" x="2.61" y="29.38" width="13.07" height="2.61" transform="translate(18.3 61.37) rotate(180)"/><rect class="cls-1" x="21.36" y="29.38" width="13.07" height="2.61" transform="translate(55.79 61.37) rotate(180)"/><polygon class="cls-1" points="16.45 24.48 18.3 22.63 18.3 26.33 16.45 24.48"/><rect class="cls-1" x="17.76" y="23.29" width="13.07" height="2.61" transform="translate(-10.28 24.38) rotate(-45)"/><polygon class="cls-1" points="20.6 30.14 18.75 28.3 18.75 31.99 20.6 30.14"/><polygon class="cls-1" points="16.45 30.14 18.3 28.3 18.3 31.99 16.45 30.14"/><polygon class="cls-1" points="7.21 15.24 9.05 13.39 5.36 13.39 7.21 15.24"/><rect class="cls-1" x="6.22" y="23.29" width="13.07" height="2.61" transform="translate(4.37 51.01) rotate(-135)"/><polygon class="cls-1" points="7.21 20.9 9.05 19.06 5.36 19.06 7.21 20.9"/><rect class="cls-1" x="6.22" y="6.09" width="13.07" height="2.61" transform="translate(26.99 3.6) rotate(135)"/><polygon class="cls-1" points="16.45 1.85 18.3 3.7 18.3 0 16.45 1.85"/><polygon class="cls-1" points="7.21 11.09 9.05 12.94 5.36 12.94 7.21 11.09"/><rect class="cls-1" x="17.76" y="6.09" width="13.07" height="2.61" transform="translate(12.34 -15.01) rotate(45)"/><polygon class="cls-1" points="20.6 1.85 18.75 3.7 18.75 0 20.6 1.85"/><polygon class="cls-1" points="29.84 11.09 27.99 12.94 31.68 12.94 29.84 11.09"/><polygon class="cls-1" points="29.84 15.24 27.99 13.39 31.68 13.39 29.84 15.24"/><polygon class="cls-1" points="25.38 13.39 25.38 16 27.99 13.39 25.38 13.39"/><polygon class="cls-1" points="2.61 31.99 2.61 29.38 0 31.99 2.61 31.99"/><polygon class="cls-1" points="34.43 31.99 34.43 29.38 37.04 31.99 34.43 31.99"/><polygon class="cls-1" points="29.84 20.9 27.99 19.06 31.68 19.06 29.84 20.9"/><rect class="cls-1" x="17.76" y="17.63" width="13.07" height="2.61" transform="translate(-6.27 22.72) rotate(-45)"/><polygon class="cls-1" points="20.6 24.48 18.75 22.63 18.75 26.33 20.6 24.48"/><rect class="cls-1" x="18.76" y="13.39" width="6.63" height="2.61" transform="matrix(-1, 0, 0, -1, 44.14, 29.39)"/><polygon class="cls-1" points="21.36 31.99 21.36 29.38 18.75 31.99 21.36 31.99"/><polygon class="cls-1" points="15.68 31.99 15.68 29.38 18.3 31.99 15.68 31.99"/><rect class="cls-1" x="6.22" y="17.63" width="13.07" height="2.61" transform="translate(8.38 41.34) rotate(-135)"/><rect class="cls-1" x="2.61" y="29.38" width="13.07" height="2.61" transform="translate(18.3 61.37) rotate(180)"/><rect class="cls-1" x="21.36" y="29.38" width="13.07" height="2.61" transform="translate(55.79 61.37) rotate(180)"/><polygon class="cls-1" points="16.45 24.48 18.3 22.63 18.3 26.33 16.45 24.48"/><rect class="cls-1" x="17.76" y="23.29" width="13.07" height="2.61" transform="translate(-10.28 24.38) rotate(-45)"/><polygon class="cls-1" points="20.6 30.14 18.75 28.3 18.75 31.99 20.6 30.14"/><polygon class="cls-1" points="16.45 30.14 18.3 28.3 18.3 31.99 16.45 30.14"/><polygon class="cls-1" points="7.21 15.24 9.05 13.39 5.36 13.39 7.21 15.24"/><rect class="cls-1" x="6.22" y="23.29" width="13.07" height="2.61" transform="translate(4.37 51.01) rotate(-135)"/><polygon class="cls-1" points="7.21 20.9 9.05 19.06 5.36 19.06 7.21 20.9"/><rect class="cls-1" x="6.22" y="6.09" width="13.07" height="2.61" transform="translate(26.99 3.6) rotate(135)"/><polygon class="cls-1" points="16.45 1.85 18.3 3.7 18.3 0 16.45 1.85"/><polygon class="cls-1" points="7.21 11.09 9.05 12.94 5.36 12.94 7.21 11.09"/><rect class="cls-1" x="17.76" y="6.09" width="13.07" height="2.61" transform="translate(12.34 -15.01) rotate(45)"/><polygon class="cls-1" points="20.6 1.85 18.75 3.7 18.75 0 20.6 1.85"/><polygon class="cls-1" points="29.84 11.09 27.99 12.94 31.68 12.94 29.84 11.09"/><polygon class="cls-1" points="29.84 15.25 27.99 13.4 31.68 13.4 29.84 15.25"/><polygon class="cls-1" points="25.38 13.4 25.38 16.01 27.99 13.4 25.38 13.4"/><polygon class="cls-1" points="2.61 32 2.61 29.39 0 32 2.61 32"/><polygon class="cls-1" points="34.43 32 34.43 29.39 37.04 32 34.43 32"/><polygon class="cls-1" points="29.84 20.91 27.99 19.06 31.68 19.06 29.84 20.91"/><rect class="cls-1" x="17.76" y="17.64" width="13.07" height="2.61" transform="translate(-6.28 22.73) rotate(-45)"/><polygon class="cls-1" points="20.6 24.49 18.75 22.64 18.75 26.34 20.6 24.49"/><rect class="cls-1" x="18.76" y="13.4" width="6.63" height="2.61" transform="matrix(-1, 0, 0, -1, 44.14, 29.41)"/><polygon class="cls-1" points="21.36 32 21.36 29.39 18.75 32 21.36 32"/><polygon class="cls-1" points="15.68 32 15.68 29.39 18.3 32 15.68 32"/><rect class="cls-1" x="6.22" y="17.64" width="13.07" height="2.61" transform="translate(8.37 41.35) rotate(-135)"/><rect class="cls-1" x="2.61" y="29.39" width="13.07" height="2.61" transform="translate(18.3 61.39) rotate(180)"/><rect class="cls-1" x="21.36" y="29.39" width="13.07" height="2.61" transform="translate(55.79 61.39) rotate(180)"/><polygon class="cls-1" points="16.45 24.49 18.3 22.64 18.3 26.34 16.45 24.49"/><rect class="cls-1" x="17.76" y="23.3" width="13.07" height="2.61" transform="translate(-10.28 24.39) rotate(-45)"/><polygon class="cls-1" points="20.6 30.15 18.75 28.3 18.75 32 20.6 30.15"/><polygon class="cls-1" points="16.45 30.15 18.3 28.3 18.3 32 16.45 30.15"/><polygon class="cls-1" points="7.21 15.25 9.05 13.4 5.36 13.4 7.21 15.25"/><rect class="cls-1" x="6.22" y="23.3" width="13.07" height="2.61" transform="translate(4.37 51.02) rotate(-135)"/><polygon class="cls-1" points="7.21 20.91 9.05 19.06 5.36 19.06 7.21 20.91"/><rect class="cls-1" x="6.22" y="6.09" width="13.07" height="2.61" transform="translate(27 3.62) rotate(135)"/><polygon class="cls-1" points="16.45 1.86 18.3 3.7 18.3 0.01 16.45 1.86"/><polygon class="cls-1" points="7.21 11.1 9.05 12.94 5.36 12.94 7.21 11.1"/><rect class="cls-1" x="17.76" y="6.09" width="13.07" height="2.61" transform="translate(12.35 -15.01) rotate(45)"/><polygon class="cls-1" points="20.6 1.86 18.75 3.7 18.75 0.01 20.6 1.86"/><polygon class="cls-1" points="29.84 11.1 27.99 12.94 31.68 12.94 29.84 11.1"/><polygon class="cls-1" points="29.84 15.25 27.99 13.4 31.68 13.4 29.84 15.25"/><polygon class="cls-1" points="25.38 13.4 25.38 16.01 27.99 13.4 25.38 13.4"/><polygon class="cls-1" points="2.61 32 2.61 29.39 0 32 2.61 32"/><polygon class="cls-1" points="34.43 32 34.43 29.39 37.04 32 34.43 32"/><polygon class="cls-1" points="29.84 20.91 27.99 19.06 31.68 19.06 29.84 20.91"/><rect class="cls-1" x="17.76" y="17.64" width="13.07" height="2.61" transform="translate(-6.28 22.73) rotate(-45)"/><polygon class="cls-1" points="20.6 24.49 18.75 22.64 18.75 26.34 20.6 24.49"/><rect class="cls-1" x="18.76" y="13.4" width="6.63" height="2.61" transform="matrix(-1, 0, 0, -1, 44.14, 29.41)"/><polygon class="cls-1" points="21.36 32 21.36 29.39 18.75 32 21.36 32"/><polygon class="cls-1" points="15.68 32 15.68 29.39 18.3 32 15.68 32"/><rect class="cls-1" x="6.22" y="17.64" width="13.07" height="2.61" transform="translate(8.37 41.35) rotate(-135)"/><rect class="cls-1" x="2.61" y="29.39" width="13.07" height="2.61" transform="translate(18.3 61.39) rotate(180)"/><rect class="cls-1" x="21.36" y="29.39" width="13.07" height="2.61" transform="translate(55.79 61.39) rotate(180)"/><polygon class="cls-1" points="16.45 24.49 18.3 22.64 18.3 26.34 16.45 24.49"/><rect class="cls-1" x="17.76" y="23.3" width="13.07" height="2.61" transform="translate(-10.28 24.39) rotate(-45)"/><polygon class="cls-1" points="20.6 30.15 18.75 28.3 18.75 32 20.6 30.15"/><polygon class="cls-1" points="16.45 30.15 18.3 28.3 18.3 32 16.45 30.15"/><polygon class="cls-1" points="7.21 15.25 9.05 13.4 5.36 13.4 7.21 15.25"/><rect class="cls-1" x="6.22" y="23.3" width="13.07" height="2.61" transform="translate(4.37 51.02) rotate(-135)"/><polygon class="cls-1" points="7.21 20.91 9.05 19.06 5.36 19.06 7.21 20.91"/><rect class="cls-1" x="6.22" y="6.09" width="13.07" height="2.61" transform="translate(27 3.62) rotate(135)"/><polygon class="cls-1" points="16.45 1.86 18.3 3.7 18.3 0.01 16.45 1.86"/><polygon class="cls-1" points="7.21 11.1 9.05 12.94 5.36 12.94 7.21 11.1"/><rect class="cls-1" x="17.76" y="6.09" width="13.07" height="2.61" transform="translate(12.35 -15.01) rotate(45)"/><polygon class="cls-1" points="20.6 1.86 18.75 3.7 18.75 0.01 20.6 1.86"/><polygon class="cls-1" points="29.84 11.1 27.99 12.94 31.68 12.94 29.84 11.1"/></svg>